<svg width="130" height="112" viewBox="0 0 130 112" fill="none" xmlns="http://www.w3.org/2000/svg">
<g clip-path="url(#clip0_103_485)">
<path d="M130 86.822C130 93.1701 127.503 99.1349 122.975 103.622L121.538 105.046C116.862 109.679 110.725 112 104.581 112C98.4369 112 92.2916 109.68 87.6159 105.046L65.0013 82.6406L74.8405 72.8922L97.455 95.2981C99.3557 97.1812 101.892 98.2233 104.581 98.2233C107.27 98.2233 109.798 97.1812 111.707 95.2981L113.136 93.8808C115.045 91.9896 116.088 89.485 116.088 86.8207C116.088 84.1564 115.045 81.6438 113.136 79.7607L65 32.0704L74.8391 22.322L90.5213 37.8595L100.36 47.6078L122.975 70.0137C127.504 74.5012 130 80.474 130 86.822Z" fill="url(#paint0_linear_103_485)"/>
<mask id="mask0_103_485" style="mask-type:luminance" maskUnits="userSpaceOnUse" x="65" y="22" width="65" height="90">
<path d="M130 86.822C130 93.1701 127.503 99.1349 122.975 103.622L121.538 105.046C116.862 109.679 110.725 112 104.581 112C98.4369 112 92.2916 109.68 87.6159 105.046L65.0013 82.6406L74.8405 72.8922L97.455 95.2981C99.3557 97.1812 101.892 98.2233 104.581 98.2233C107.27 98.2233 109.798 97.1812 111.707 95.2981L113.136 93.8808C115.045 91.9896 116.088 89.485 116.088 86.8207C116.088 84.1564 115.045 81.6438 113.136 79.7607L65 32.0704L74.8391 22.322L90.5213 37.8595L100.36 47.6078L122.975 70.0137C127.504 74.5012 130 80.474 130 86.822Z" fill="white"/>
</mask>
<g mask="url(#mask0_103_485)">
<path style="mix-blend-mode:multiply" d="M61.2443 32.0464C60.5056 33.2561 59.7534 34.5058 59.529 35.9031C59.2779 37.4748 59.7238 39.0732 60.2812 40.5664C62.832 47.3895 67.9 53.2572 74.3099 56.8091C76.3973 57.9656 78.623 58.8852 80.615 60.1974C87.4547 64.701 91.5206 73.696 99.5934 75.1919C103.563 75.9278 107.778 74.5012 110.792 71.8382C113.806 69.1752 115.676 65.3863 116.431 61.4551C116.76 59.745 116.879 57.927 116.232 56.3088C115.789 55.2028 115.015 54.2619 114.213 53.3756C106.82 45.2096 96.2689 40.2736 89.1874 31.8414C85.5392 27.4976 81.0744 19.0468 74.4066 18.8672C68.4951 18.7075 63.8139 27.8317 61.243 32.0477L61.2443 32.0464Z" fill="url(#paint1_linear_103_485)"/>
<path style="mix-blend-mode:multiply" d="M69.7428 73.201C67.2444 74.2164 64.8239 75.5566 63.0025 77.5315C61.1811 79.5065 60.0152 82.1881 60.3201 84.8471C63.1046 86.4454 64.9085 89.2721 67.2928 91.4134C69.4607 93.3604 72.1136 94.7405 74.1754 96.798C75.7188 98.3377 76.8834 100.212 78.3515 101.822C80.4671 104.143 83.1603 105.864 85.8951 107.423C86.7306 107.9 87.5996 108.374 88.556 108.495C90.2498 108.709 91.8845 107.779 93.1592 106.654C95.7584 104.362 97.4576 101.095 97.835 97.6697C98.2125 94.2441 97.2615 90.6894 95.2224 87.8974C94.344 86.6956 93.2815 85.6403 92.3211 84.5024C89.8375 81.5613 88.051 78.0892 85.5324 75.1773C85.0341 74.601 84.4646 74.0208 83.7204 73.8345C82.5343 73.539 81.3604 73.8784 80.1824 73.4326C79.1749 73.052 78.4066 72.3639 77.3011 72.1164C74.7866 71.5508 72.0706 72.2548 69.7415 73.2023L69.7428 73.201Z" fill="url(#paint2_linear_103_485)"/>
</g>
<path d="M49.3178 47.6078L65 63.1452L55.1609 72.8936L39.4787 57.3561L23.9739 41.9943C14.6223 32.7291 14.6223 17.6508 23.9739 8.38556L25.4111 6.96157C29.9418 2.47401 35.9702 0 42.3774 0C48.7846 0 54.8049 2.47401 59.3343 6.96024L65 12.5737L55.1609 22.322L49.4951 16.7086C47.5945 14.8254 45.0665 13.7834 42.3774 13.7834C39.6882 13.7834 37.1522 14.8254 35.2516 16.7086L33.8143 18.1326C29.8881 22.0226 29.8881 28.356 33.8143 32.246L49.3192 47.6078H49.3178Z" fill="url(#paint3_linear_103_485)"/>
<path d="M106.025 41.9943L100.359 47.6078L90.52 37.8595L96.1857 32.246C100.12 28.356 100.12 22.0226 96.1857 18.1326L94.7565 16.7086C92.8478 14.8254 90.3198 13.7834 87.6307 13.7834C84.9416 13.7834 82.4056 14.8254 80.5049 16.7086L74.8392 22.322L65 32.0703L49.3179 47.6078L39.4788 37.8595L55.1609 22.322L65 12.5737L70.6658 6.96024C75.2018 2.47401 81.2235 0 87.6307 0C94.0379 0 100.058 2.47401 104.588 6.96024L106.025 8.38423C115.376 17.6495 115.376 32.7278 106.025 41.993V41.9943Z" fill="url(#paint4_linear_103_485)"/>
<mask id="mask1_103_485" style="mask-type:luminance" maskUnits="userSpaceOnUse" x="39" y="0" width="75" height="48">
<path d="M106.025 41.9943L100.359 47.6078L90.52 37.8595L96.1857 32.246C100.12 28.356 100.12 22.0226 96.1857 18.1326L94.7565 16.7086C92.8478 14.8254 90.3198 13.7834 87.6307 13.7834C84.9416 13.7834 82.4056 14.8254 80.5049 16.7086L74.8392 22.322L65 32.0703L49.3179 47.6078L39.4788 37.8595L55.1609 22.322L65 12.5737L70.6658 6.96024C75.2018 2.47401 81.2235 0 87.6307 0C94.0379 0 100.058 2.47401 104.588 6.96024L106.025 8.38423C115.376 17.6495 115.376 32.7278 106.025 41.993V41.9943Z" fill="white"/>
</mask>
<g mask="url(#mask1_103_485)">
<path style="mix-blend-mode:multiply" d="M69.7322 38.0671C72.4657 35.621 75.2596 33.0964 76.9212 29.8399C78.3275 27.0824 78.8312 23.9749 79.3161 20.9233C79.519 19.6484 79.711 18.2883 79.1778 17.1105C78.0145 14.5393 74.408 14.4502 71.5953 14.8627C61.6366 16.324 51.8633 19.0162 42.5749 22.8597C40.0671 23.8977 37.5096 25.0795 35.7446 27.1263C34.2751 28.8298 33.4813 30.9871 32.5531 33.0312C30.6377 37.2526 28.0452 41.1679 26.4132 45.5051C24.7825 49.8423 24.209 54.8768 26.3608 58.9851C33.0165 61.3247 40.3613 59.8341 47.2144 58.1426C54.5054 56.3434 62.3351 54.7783 69.2849 51.953C67.6113 51.02 58.5821 50.9429 58.1953 48.92C57.8017 46.8665 68.0277 39.5922 69.7309 38.0671H69.7322Z" fill="url(#paint5_linear_103_485)"/>
</g>
<path d="M90.5213 57.3548L74.8391 72.8922L42.3855 105.046C37.7097 109.679 31.5644 112 25.4286 112C19.2927 112 13.1394 109.68 8.46366 105.046L7.02641 103.622C2.49706 99.1349 0 93.1701 0 86.822C0 80.474 2.49706 74.5012 7.02507 70.0136L29.6396 47.6078L39.4787 57.3561L16.8642 79.762C14.9622 81.6451 13.9118 84.1577 13.9118 86.822C13.9118 89.4863 14.9635 91.991 16.8642 93.8821L18.3014 95.2994C20.2034 97.1825 22.7301 98.2246 25.4192 98.2246C28.1083 98.2246 30.6443 97.1825 32.545 95.2994L55.1595 72.8936L80.6808 47.6078L90.5199 57.3561L90.5213 57.3548Z" fill="url(#paint6_linear_103_485)"/>
<mask id="mask2_103_485" style="mask-type:luminance" maskUnits="userSpaceOnUse" x="0" y="47" width="91" height="65">
<path d="M90.5213 57.3548L74.8391 72.8922L42.3855 105.046C37.7097 109.679 31.5644 112 25.4286 112C19.2927 112 13.1394 109.68 8.46366 105.046L7.02641 103.622C2.49706 99.1349 0 93.1701 0 86.822C0 80.474 2.49706 74.5012 7.02507 70.0136L29.6396 47.6078L39.4787 57.3561L16.8642 79.762C14.9622 81.6451 13.9118 84.1577 13.9118 86.822C13.9118 89.4863 14.9635 91.991 16.8642 93.8821L18.3014 95.2994C20.2034 97.1825 22.7301 98.2246 25.4192 98.2246C28.1083 98.2246 30.6443 97.1825 32.545 95.2994L55.1595 72.8936L80.6808 47.6078L90.5199 57.3561L90.5213 57.3548Z" fill="white"/>
</mask>
<g mask="url(#mask2_103_485)">
<path style="mix-blend-mode:multiply" d="M29.6988 40.5983C26.1245 38.8456 21.3305 38.8829 18.5984 41.7615C17.7414 42.6638 17.145 43.7737 16.5688 44.8729C13.3437 51.0347 10.4571 57.3694 7.92379 63.8413C6.0782 68.5551 4.39648 73.5537 5.02243 78.5709C5.64971 83.5881 9.25493 88.5881 14.3175 89.2242C17.6017 89.6367 20.898 88.1662 23.3897 86.0076C25.8814 83.849 27.7041 81.0502 29.4933 78.2901C31.989 74.44 34.4807 70.5859 36.9818 66.7385C38.6957 64.1021 42.9363 60.3997 43.577 57.3308C44.6261 52.3043 33.9582 42.6891 29.6975 40.5997L29.6988 40.5983Z" fill="url(#paint7_linear_103_485)"/>
</g>
</g>
<defs>
<linearGradient id="paint0_linear_103_485" x1="65" y1="67.1603" x2="130" y2="67.1603" gradientUnits="userSpaceOnUse">
<stop stop-color="#4F80FF"/>
<stop offset="0.5" stop-color="#2BD2FF"/>
<stop offset="0.99" stop-color="#2FFD8A"/>
</linearGradient>
<linearGradient id="paint1_linear_103_485" x1="116.699" y1="47.1234" x2="59.4578" y2="47.1234" gradientUnits="userSpaceOnUse">
<stop stop-color="white" stop-opacity="0"/>
<stop offset="1" stop-opacity="0.6"/>
</linearGradient>
<linearGradient id="paint2_linear_103_485" x1="97.9169" y1="90.2183" x2="60.2717" y2="90.2183" gradientUnits="userSpaceOnUse">
<stop stop-color="white" stop-opacity="0"/>
<stop offset="1" stop-opacity="0.6"/>
</linearGradient>
<linearGradient id="paint3_linear_103_485" x1="16.9609" y1="36.4461" x2="65" y2="36.4461" gradientUnits="userSpaceOnUse">
<stop stop-color="#4F80FF"/>
<stop offset="0.5" stop-color="#2BD2FF"/>
<stop offset="0.99" stop-color="#2FFD8A"/>
</linearGradient>
<linearGradient id="paint4_linear_103_485" x1="39.4788" y1="23.8032" x2="113.039" y2="23.8032" gradientUnits="userSpaceOnUse">
<stop stop-color="#4F80FF"/>
<stop offset="0.5" stop-color="#2BD2FF"/>
<stop offset="0.99" stop-color="#2FFD8A"/>
</linearGradient>
<linearGradient id="paint5_linear_103_485" x1="79.523" y1="37.4349" x2="24.9598" y2="37.4349" gradientUnits="userSpaceOnUse">
<stop stop-color="white" stop-opacity="0"/>
<stop offset="1" stop-opacity="0.6"/>
</linearGradient>
<linearGradient id="paint6_linear_103_485" x1="0" y1="79.8032" x2="90.5213" y2="79.8032" gradientUnits="userSpaceOnUse">
<stop stop-color="#4F80FF"/>
<stop offset="0.5" stop-color="#2BD2FF"/>
<stop offset="0.99" stop-color="#2FFD8A"/>
</linearGradient>
<linearGradient id="paint7_linear_103_485" x1="4.88945" y1="64.3536" x2="43.6496" y2="64.3536" gradientUnits="userSpaceOnUse">
<stop stop-color="white" stop-opacity="0"/>
<stop offset="1" stop-opacity="0.6"/>
</linearGradient>
<clipPath id="clip0_103_485">
<rect width="130" height="112" fill="white"/>
</clipPath>
</defs>
</svg>
